<svg width="132" height="37" viewBox="0 0 132 37" fill="none" xmlns="http://www.w3.org/2000/svg">
<path d="M8.316 35.452C6.564 35.452 5.148 34.996 4.068 34.084C3.012 33.196 2.484 32.02 2.484 30.556C2.484 29.644 2.7 28.804 3.132 28.036C3.564 27.268 4.152 26.668 4.896 26.236C5.64 25.78 6.456 25.552 7.344 25.552C8.256 25.552 8.988 25.78 9.54 26.236C10.116 26.692 10.404 27.292 10.404 28.036C10.404 28.612 10.272 29.068 10.008 29.404C9.792 29.116 9.492 28.888 9.108 28.72C8.748 28.552 8.364 28.468 7.956 28.468C7.236 28.468 6.648 28.708 6.192 29.188C5.736 29.668 5.508 30.292 5.508 31.06C5.508 31.828 5.724 32.452 6.156 32.932C6.612 33.412 7.176 33.652 7.848 33.652C8.688 33.652 9.408 33.28 10.008 32.536C10.608 31.792 11.064 30.688 11.376 29.224L13.176 21.268H13.032C12.384 22.18 11.592 22.876 10.656 23.356C9.744 23.836 8.736 24.076 7.632 24.076C6.24 24.076 5.016 23.704 3.96 22.96C2.904 22.216 2.088 21.16 1.512 19.792C0.96 18.4 0.684 16.792 0.684 14.968C0.684 12.328 1.26 9.928 2.412 7.768C3.564 5.584 5.148 3.868 7.164 2.62C9.18 1.372 11.4 0.747999 13.824 0.747999C15.864 0.747999 17.472 1.192 18.648 2.08C19.848 2.968 20.448 4.18 20.448 5.716C20.448 6.748 20.196 7.576 19.692 8.2C19.188 8.824 18.528 9.136 17.712 9.136C17.256 9.136 16.824 9.04 16.416 8.848C16.032 8.656 15.708 8.38 15.444 8.02C15.876 7.732 16.236 7.276 16.524 6.652C16.836 6.004 16.992 5.356 16.992 4.708C16.992 3.988 16.776 3.436 16.344 3.052C15.936 2.644 15.348 2.44 14.58 2.44C13.188 2.44 11.844 3.064 10.548 4.312C9.252 5.536 8.208 7.144 7.416 9.136C6.624 11.128 6.228 13.216 6.228 15.4C6.228 17.2 6.516 18.58 7.092 19.54C7.668 20.476 8.496 20.944 9.576 20.944C10.872 20.944 12.012 20.26 12.996 18.892C14.004 17.524 14.808 15.532 15.408 12.916L19.656 12.952L17.028 25.048C16.26 28.624 15.168 31.252 13.752 32.932C12.36 34.612 10.548 35.452 8.316 35.452ZM26.8245 8.056C26.0325 8.056 25.3605 7.78 24.8085 7.228C24.2565 6.676 23.9805 6.004 23.9805 5.212C23.9805 4.42 24.2565 3.748 24.8085 3.196C25.3605 2.62 26.0325 2.332 26.8245 2.332C27.6165 2.332 28.2885 2.62 28.8405 3.196C29.4165 3.748 29.7045 4.42 29.7045 5.212C29.7045 6.004 29.4165 6.676 28.8405 7.228C28.2885 7.78 27.6165 8.056 26.8245 8.056ZM24.3765 28.216C23.2245 28.216 22.2885 27.856 21.5685 27.136C20.8725 26.416 20.5245 25.336 20.5245 23.896C20.5245 23.296 20.6205 22.516 20.8125 21.556L23.2605 10H28.4445L25.8525 22.24C25.7565 22.6 25.7085 22.984 25.7085 23.392C25.7085 23.872 25.8165 24.22 26.0325 24.436C26.2725 24.628 26.6565 24.724 27.1845 24.724C27.8805 24.724 28.5285 24.436 29.1285 23.86C29.7285 23.26 30.1605 22.492 30.4245 21.556H31.9365C31.0485 24.148 29.9085 25.912 28.5165 26.848C27.1245 27.76 25.7445 28.216 24.3765 28.216ZM33.9742 28.216C32.8222 28.216 31.8862 27.856 31.1662 27.136C30.4702 26.416 30.1222 25.336 30.1222 23.896C30.1222 23.296 30.2182 22.516 30.4102 21.556L32.5702 11.44H31.3822L31.6702 10H32.8582L33.9382 5.032L39.2662 4.312L38.0422 10H40.2022L39.9142 11.44H37.7542L35.4502 22.24C35.3542 22.6 35.3062 22.984 35.3062 23.392C35.3062 23.872 35.4142 24.22 35.6302 24.436C35.8702 24.628 36.2542 24.724 36.7822 24.724C37.4782 24.724 38.1262 24.436 38.7262 23.86C39.3262 23.26 39.7582 22.492 40.0222 21.556H41.5342C40.6462 24.148 39.5062 25.912 38.1142 26.848C36.7222 27.76 35.3422 28.216 33.9742 28.216ZM45.2638 28.144C43.4878 28.144 42.0838 27.688 41.0518 26.776C40.0198 25.864 39.5038 24.424 39.5038 22.456C39.5038 20.824 39.8398 19.012 40.5118 17.02C41.1838 15.028 42.2638 13.312 43.7518 11.872C45.2398 10.408 47.1118 9.676 49.3678 9.676C52.4398 9.676 53.9758 11.596 53.9758 15.436V15.472C54.0478 15.496 54.1798 15.508 54.3718 15.508C55.1638 15.508 56.0758 15.304 57.1078 14.896C58.1398 14.464 59.0758 13.948 59.9158 13.348L60.2398 14.32C59.5438 15.064 58.6318 15.7 57.5038 16.228C56.3998 16.732 55.1878 17.092 53.8678 17.308C53.6758 19.492 53.1838 21.4 52.3918 23.032C51.5998 24.664 50.5798 25.924 49.3318 26.812C48.0838 27.7 46.7278 28.144 45.2638 28.144ZM46.7038 24.904C47.2798 24.904 47.8558 24.58 48.4318 23.932C49.0078 23.26 49.5118 22.36 49.9438 21.232C50.3758 20.08 50.6878 18.808 50.8798 17.416C50.2318 17.272 49.9078 16.768 49.9078 15.904C49.9078 14.92 50.2798 14.272 51.0238 13.96C50.9758 13.168 50.8558 12.628 50.6638 12.34C50.4718 12.028 50.1358 11.872 49.6558 11.872C48.8638 11.872 48.0958 12.448 47.3518 13.6C46.6078 14.752 46.0078 16.132 45.5518 17.74C45.0958 19.348 44.8678 20.764 44.8678 21.988C44.8678 23.14 44.9998 23.92 45.2638 24.328C45.5278 24.712 46.0078 24.904 46.7038 24.904ZM62.2001 37C61.0481 37 60.0881 36.7 59.3201 36.1C58.5521 35.5 58.1681 34.636 58.1681 33.508C58.1681 32.14 58.7201 31.036 59.8241 30.196C60.9281 29.38 62.3321 28.696 64.0361 28.144L64.4681 26.236C63.2441 27.556 61.8041 28.216 60.1481 28.216C58.7801 28.216 57.6401 27.748 56.7281 26.812C55.8161 25.876 55.3601 24.412 55.3601 22.42C55.3601 20.644 55.7081 18.784 56.4041 16.84C57.1241 14.872 58.1801 13.216 59.5721 11.872C60.9881 10.504 62.6681 9.82 64.6121 9.82C65.5961 9.82 66.3281 9.988 66.8081 10.324C67.2881 10.66 67.5281 11.104 67.5281 11.656V11.872L67.9241 10H73.1081L69.5441 26.704C70.6961 26.32 71.6201 25.744 72.3161 24.976C73.0121 24.208 73.6001 23.068 74.0801 21.556H75.5921C74.9441 23.692 74.0681 25.264 72.9641 26.272C71.8601 27.256 70.6121 27.928 69.2201 28.288L68.6801 30.88C68.2001 33.208 67.3721 34.804 66.1961 35.668C65.0201 36.556 63.6881 37 62.2001 37ZM62.4881 24.724C63.0401 24.724 63.6041 24.472 64.1801 23.968C64.7561 23.464 65.1521 22.78 65.3681 21.916L67.2041 13.384C67.2041 13.096 67.0841 12.808 66.8441 12.52C66.6041 12.208 66.2321 12.052 65.7281 12.052C64.7681 12.052 63.9041 12.616 63.1361 13.744C62.3681 14.848 61.7681 16.192 61.3361 17.776C60.9041 19.336 60.6881 20.716 60.6881 21.916C60.6881 23.116 60.8561 23.884 61.1921 24.22C61.5521 24.556 61.9841 24.724 62.4881 24.724ZM61.3721 34.192C61.7801 34.192 62.1761 33.916 62.5601 33.364C62.9441 32.812 63.2441 32.02 63.4601 30.988L63.6761 29.944C61.3241 30.808 60.1481 31.828 60.1481 33.004C60.1481 33.316 60.2561 33.592 60.4721 33.832C60.6881 34.072 60.9881 34.192 61.3721 34.192ZM76.5222 10H81.7062L81.2382 12.232C82.0542 11.512 82.7862 10.96 83.4342 10.576C84.1062 10.192 84.8262 10 85.5942 10C86.3622 10 86.9622 10.264 87.3942 10.792C87.8502 11.32 88.0782 11.956 88.0782 12.7C88.0782 13.396 87.8502 14.008 87.3942 14.536C86.9382 15.064 86.3022 15.328 85.4862 15.328C84.9582 15.328 84.5982 15.208 84.4062 14.968C84.2382 14.704 84.1062 14.332 84.0102 13.852C83.9382 13.54 83.8662 13.312 83.7942 13.168C83.7222 13.024 83.5902 12.952 83.3982 12.952C82.8942 12.952 82.4622 13.06 82.1022 13.276C81.7662 13.468 81.3222 13.816 80.7702 14.32L77.8902 28H72.7062L76.5222 10ZM91.9294 28.216C90.5614 28.216 89.4214 27.748 88.5094 26.812C87.5974 25.876 87.1414 24.412 87.1414 22.42C87.1414 20.644 87.4894 18.784 88.1854 16.84C88.9054 14.872 89.9614 13.216 91.3534 11.872C92.7694 10.504 94.4494 9.82 96.3934 9.82C97.3774 9.82 98.1094 9.988 98.5894 10.324C99.0694 10.66 99.3094 11.104 99.3094 11.656V11.908L99.7054 10H104.889L102.297 22.24C102.201 22.6 102.153 22.984 102.153 23.392C102.153 24.424 102.645 24.94 103.629 24.94C104.301 24.94 104.877 24.628 105.357 24.004C105.861 23.38 106.257 22.564 106.545 21.556H108.057C107.169 24.148 106.065 25.912 104.745 26.848C103.449 27.76 102.141 28.216 100.821 28.216C99.8134 28.216 98.9974 27.94 98.3734 27.388C97.7734 26.812 97.4134 25.984 97.2934 24.904C96.5974 25.888 95.8174 26.692 94.9534 27.316C94.1134 27.916 93.1054 28.216 91.9294 28.216ZM94.2694 24.724C94.8694 24.724 95.4574 24.448 96.0334 23.896C96.6334 23.32 97.0414 22.54 97.2574 21.556L98.9854 13.42C98.9854 13.108 98.8654 12.808 98.6254 12.52C98.3854 12.208 98.0134 12.052 97.5094 12.052C96.5494 12.052 95.6854 12.616 94.9174 13.744C94.1494 14.848 93.5494 16.192 93.1174 17.776C92.6854 19.336 92.4694 20.716 92.4694 21.916C92.4694 23.116 92.6374 23.884 92.9734 24.22C93.3334 24.556 93.7654 24.724 94.2694 24.724ZM127.835 28.216C126.563 28.216 125.639 27.832 125.063 27.064C124.487 26.296 124.199 25.324 124.199 24.148C124.199 23.644 124.259 23.08 124.379 22.456C124.499 21.808 124.619 21.184 124.739 20.584C124.883 19.984 124.979 19.6 125.027 19.432C125.219 18.592 125.399 17.764 125.567 16.948C125.735 16.132 125.819 15.472 125.819 14.968C125.819 13.744 125.387 13.132 124.523 13.132C123.899 13.132 123.347 13.444 122.867 14.068C122.387 14.668 122.003 15.46 121.715 16.444L119.267 28H114.083L116.711 15.58C116.783 15.292 116.819 14.992 116.819 14.68C116.819 13.624 116.459 13.096 115.739 13.096C115.067 13.096 114.479 13.408 113.975 14.032C113.495 14.632 113.111 15.436 112.823 16.444L110.375 28H105.191L109.007 10H114.191L113.795 11.872C115.019 10.504 116.483 9.82 118.187 9.82C120.299 9.82 121.535 10.852 121.895 12.916C123.215 10.876 124.883 9.856 126.899 9.856C128.123 9.856 129.095 10.192 129.815 10.864C130.535 11.536 130.895 12.556 130.895 13.924C130.895 14.62 130.811 15.4 130.643 16.264C130.475 17.104 130.235 18.136 129.923 19.36C129.731 20.104 129.551 20.836 129.383 21.556C129.239 22.252 129.167 22.804 129.167 23.212C129.167 23.692 129.275 24.064 129.491 24.328C129.707 24.592 130.079 24.724 130.607 24.724C131.183 24.724 131.579 24.652 131.795 24.508C131.651 25.732 131.207 26.656 130.463 27.28C129.743 27.904 128.867 28.216 127.835 28.216Z" fill="black"/>
</svg>
